<?xml version="1.0" encoding="utf-8"?>
<!-- Generator: Adobe Illustrator 22.1.0, SVG Export Plug-In . SVG Version: 6.00 Build 0)  -->
<svg version="1.1" id="Livello_1" xmlns="http://www.w3.org/2000/svg" xmlns:xlink="http://www.w3.org/1999/xlink" x="0px" y="0px"
	 viewBox="0 0 737 340.2" style="enable-background:new 0 0 737 340.2;" xml:space="preserve">
<g>
	<g>
		<path d="M627.2,120.7c-0.2,0-0.4,0-0.7,0c-1.4,0.3-2.7,1.9-4,2.7c-7.4,4.9-10.2,5.3-12.1,5.6c-8.4,1.2-15-3.6-22.4-6.5
			c-4.7-1.9-10,0.4-14.7,1.8c-7.4,2.1-14.3,8.1-16.5,15.3c-1.4,4.6-1.9,9.4-3.1,14c-0.6,2.2-0.7,5.6-2.6,7.2c-5,4.5-5.4-3.3-5.3-6.7
			c0.2-7.3,1.2-15,3-22.1c1-4-1.3-7.4-5.4-8c-5.2-0.7-7.4,3.2-9.6,7c-6.8,11.5-14.1,24.6-25.7,31.8c-1.7,1-3.7,1.4-5.5,0.6
			c-7.2-2.9-2.4-14.5,4.4-29.1c1.5-3.2-0.2-13.2-5.5-11.7c-2.6,0.7-5.8,8-7.4,10.3c-2.2,3.1-4.6,6.1-7.1,8.9
			c-6.1,6.8-13,12.8-19.7,18.9c-3,2.8-6.2,1.8-7.1-2.3c-2-9.5-2.5-10.2,5.3-17.9c17.9-17.8,42.5-41.6,38.2-69.8
			c-2-12.8-12.9-16.8-22.7-9.5c-17.2,12.8-23.2,35.1-28.1,54.8c-2.6,10.3-5.8,21.2-11.7,30.4c-6.5,10.2-7.9,12.3-18,22.5
			c-3.4,3.5-5.7,2.4-5-2.5c0.3-2.2,0.5-0.6,0.6-4.4c0.1-4.9,1-10,2.6-14.6c3.6-10.5,11-17.2,17.6-25.7c7.9-10.2,14.2-22.2,19.7-33.8
			c2.6-5.8,4-10.9,4-10.9c1.1-4.1,0-10.2-2.4-13.6c0,0-9.5-13.5-20.2-9.1c-12.8,5.2-17.9,19.9-21.7,31.9c-5.3,17.2-6.2,35-10.5,52.5
			c-1.4,5.7-4.2,8.4-9.2,11.4c-3.3,2-3.6,1.7-7.2,3.8c-3.7,2.2-5.4,0.7-3.6-3.2c2.4-5.2,2.4-4.8,5.6-10.3c2.3-4.1,4.8-8.3,3.4-13.1
			c-3.1-10.9-11.3-8-18.7-4.2c-8.2,4.2-19.5,4.8-19.5,4.8c-4.2,0.2-7.5,3.8-7.3,8c0,0,0.7,14.9-7.7,22.3c-2.9,2.5-12.8,6.8-15.4,1.1
			c-0.7-1.6,2.7-4.9,4.1-5.8c13.6-8.7,19.5-34.3-1.9-35.8c-16.2-1.2-19.4,6.5-26.8,24.5c-1.6,3.9-5.1,5.7-7.9,4.2
			c-1.3-0.7-0.3,0.2-1.2-2.5c-0.9-2.7,0-5.8-0.6-8.6c-1.4-6.7-7.5-12.4-14.2-13.9c-6.8-1.5-7.2-1.4-12.6,2.4c-2.5,1.8-6,2.2-8.9,1.5
			c-7.1-1.7-11.9,2.8-15.8,8.9c-4.6,7.2-7.3,9.9-14.3,20c-2.4,3.4-4.5,4.4-5.6,2.1c-0.5-1.1-0.4,0.2-1.1-2.1
			c-1.3-4-1.9-6.6-0.6-10.8c1.5-5.2,8.8-12.9,1.8-17.8c-1.4-1-3.2-1.2-4.8-0.6c-7,2.6-10.8,11.1-15,17.1
			c-4.4,6.2-9.2,12.2-14.9,17.3c-3.8,3.4-9,6.5-13.7,4.4c-2.9-1.2-4.6-4.1-4.8-7.3c-0.2-3.9,1.4-7.7,4.1-10.6
			c3.6-3.9,9.8-5.5,11.5-11c1.4-4.5-0.8-11.6-7.9-10.4c-1.8,0.3-3.4,1.1-4.8,2.3c-7.9,6.3-15.5,12.5-24,18.1c-2,1.3-4.2,2.7-6.6,1.4
			c-1.6-0.8-2.5-2.6-2.6-4.3c-0.5-8.9,0.9-19.9,2-28.9c1.2-9.8,4.3-19,8-28c2.6-6.2,5.9-12.1,10.5-17c4.6-4.9,10.9-7.9,17.6-8
			c6.7-0.1,13.8,3.2,16.1,9.5c1.5,4,0.9,9.7,5.3,11.3c1.4,0.5,3,0.3,4.4-0.3c4.9-2.1,6.1-7,5.9-11.5c-0.6-14.6-19.6-26.9-34.2-26.6
			c-14.6,0.3-27.8,9.5-36.2,21.4c-16.1,22.7-6.3,46.6-11.7,72c-2.8,13-9.3,25.9-20,33.9c-8.9,6.7-20.2,9.2-30.5,13.3
			c-10.2,4.1-28.3,14.5-27.8,27.8c0.5,14.2,21.2,21.8,32.9,21.1c14.6-0.9,27.8-9.6,36.6-21.3c8.8-11.7,14.4-25.6,19.4-39.3
			c2.2-5.9,5.2-11.8,13-11.5c10,0.5,8.4,11.1,16.5,14.8c15.9,7.3,20.4,4.3,34.3-8c2.9-2.6,7-2,9.1,1.2c4.7,7.2,6.3,8.7,15,6.9
			c8.7-1.8,9.3-3.3,14.9-10.9c3.4-4.6,4.7-3.9,3,1.5c-9.4,29.8-13.3,38.8-19.7,59.2c-2.6,8.2-20.8,48.3-4.4,49
			c14.2,0.6,19.2-39.5,22.2-49.4c7.4-24.2,15-48.2,22.8-72.3c1.9-6,4.1-12.4,10.9-14.7c3.3-1.1,7,0.2,8.7,3.2
			c3.4,6.4-5,13.1-10.7,15.1c-3.2,1.1-6,3.4-7.2,6.6c-3.4,8.9,6.5,13.4,13.5,11c5.9-1.9,10.6-6.4,16.2-9c10.8-5.1,15.6,3,24.2,7.1
			c10,4.7,23,4.8,32-1.8c5.8-4,8.3-10.4,9.4-17c0.5-3.3,0.7-6.6,1-9.8c0.5-7,4.1-6.2,10.4-5.7c4.4,0.3,6,3.7,3.6,7.4
			c-7.7,11.7-9.6,14.6-7.6,26.3c1.2,7.4,9.3,7.8,14.5,5.1c7.2-3.6,13.1-8.7,21.2-10.4c-0.1,6.6,0.2,13.7-1.1,20.2
			c-2.7,14.2-13.5,24.4-20.8,36.5c-11.1,19.7-25.8,44.5-16.2,67.5c8.4,18.7,27.7-1.2,27.7-1.2c2.9-3,6.4-8.7,7.6-12.7
			c0,0,4.8-15.1,6.7-26.5c2.6-15.5,1.4-33.6,6.7-48.5c5.5-15.5,9.3-19.5,24.7-33.9c3-2.8,6.9-2.1,8.6,1.6c2.6,5.6,4.4,8,7.4,9.3
			c10,4.5,13.6,1.6,23.1-7.2c3-2.8,7.7-2.8,10.8,0c7.7,7,9.1,9.2,18.8,8.3c9.8-1,11.4-2.9,17.7-11.5c2.2-3,5-2.6,6.1,1
			c2.5,7.7,3.3,8.7,11.7,10.4c5.3,1.1,10.6-1,14.1-5.1c2.8-3.2,8.4-4.7,12.4-3.3c7.9,2.8,13.5,5.4,16.1,4.9
			c8.7-1.6,15.5-7.3,18.7-15.5c2.2-5.6-0.7-13.1,3.1-18c5.2-6.8,7.7-2.7,14.1-8.7c1.7-1.6,7.4-6.4,7.1-9.2
			C629.2,122.7,628.6,120.9,627.2,120.7z M466.1,114.8c1.8-7.8,14.4-39.7,19.3-41.6c1.2-0.5,2.7-0.4,3.8,0.3
			c2.8,1.8,2.2,5.7,1.2,8.7c-4.4,13.3-11.1,25.6-19.8,36.3c-1.6,1.9-3.6,6-5.2,2.9C464.5,119.9,465.7,116.4,466.1,114.8z
			 M426.6,108.9c1.5-8.3,3.6-17,6.8-25c1.7-4.4,3.8-8.6,6.2-12.7c2-3.4,8.1-10.5,10.9-3.7c0.4,0.9,0.5,1.9,0.4,2.9
			c-0.8,8.2-5.1,15.6-9.6,22.4c-4.1,6.1-8.2,14.4-14.3,18.7C426.2,110.8,426.4,110,426.6,108.9z M113.8,179.6
			c-1.2,4.7-1.7,11-3.9,15.2c-6,11.5-22,21.6-35.5,18.2c-2.1-0.5-4-2-4.6-4c-0.5-1.9,0.4-3.9,1.7-5.4c1.3-1.4,3-2.4,4.7-3.4
			c12.5-7,25.1-13.9,37.6-20.9C113.8,179.5,113.8,179.5,113.8,179.6z M326.4,139.7c-3.6,2.9-8.3,4.5-12.4,6.4l0,0
			c0.4-2.9,2.4-7,4.4-9.3c3.4-3.8,8-6.6,13-7.6C331.8,133.3,329.5,137.2,326.4,139.7z M396.7,232.6c-0.7,5-1.3,10-2.1,15
			c-1.8,10.2-4.8,20.2-8.3,30c-1,2.7-2.4,6.3-5.2,6.4c-0.3,0-0.7-0.1-0.9-0.3c-4-2.6-3.5-5.6-3.4-8.6c0.7-11,2.9-22.1,8-31.9
			c1.3-2.4,5.1-6.8,9.5-13.9c2.2-3.6,2.8-3.4,2.1,0.8C396.2,231.3,396.9,230.7,396.7,232.6z M592.9,148.8
			c-2.2,22-26.1,11.1-23.1-2.5C573.8,131.3,595.8,130.3,592.9,148.8z"/>
	</g>
	<g>
		<path d="M448.4,212.5h3.1l5,17h-4.2l-1-3.6h-6.6l-1.9,3.6h-4.1L448.4,212.5z M449.2,217.5l-2.8,5.3h4.2L449.2,217.5z"/>
		<path d="M462.4,212.5h3.7l-1.9,13.5h6.9l-0.5,3.5h-10.7L462.4,212.5z"/>
		<path d="M485.6,212.5h5.6c1.4,0,2.6,0.2,3.8,0.5c1.2,0.3,2.2,0.8,3,1.5c0.8,0.7,1.4,1.6,1.8,2.7c0.4,1.1,0.5,2.4,0.3,4
			c-0.2,1.4-0.6,2.6-1.3,3.6s-1.5,1.9-2.5,2.6c-1,0.7-2.1,1.3-3.3,1.6s-2.4,0.6-3.7,0.6h-6.1L485.6,212.5z M487.5,226.1h1.9
			c0.9,0,1.7-0.1,2.4-0.3c0.8-0.2,1.5-0.5,2.1-0.9c0.6-0.4,1.1-0.9,1.5-1.6c0.4-0.7,0.7-1.5,0.8-2.4c0.1-0.8,0.1-1.6-0.2-2.2
			c-0.2-0.6-0.6-1.1-1-1.5c-0.5-0.4-1.1-0.7-1.7-0.9c-0.7-0.2-1.4-0.3-2.2-0.3h-2.2L487.5,226.1z"/>
		<path d="M505.5,212.5h3.7l-2.4,17h-3.7L505.5,212.5z"/>
		<path d="M523.3,212.5h11.4l-0.5,3.5h-7.7l-0.5,3.5h7.1l-0.5,3.5h-7.1l-0.9,6.6h-3.7L523.3,212.5z"/>
		<path d="M551.9,223c-0.1,1-0.4,1.9-0.9,2.8c-0.4,0.8-1,1.6-1.7,2.2c-0.7,0.6-1.5,1.1-2.4,1.5s-2,0.5-3.2,0.5c-1.2,0-2.2-0.2-3-0.5
			c-0.8-0.4-1.5-0.8-2-1.5c-0.5-0.6-0.9-1.4-1-2.2c-0.2-0.8-0.2-1.8-0.1-2.8l1.5-10.4h3.7l-1.4,10.3c-0.1,0.5-0.1,1,0,1.5
			c0.1,0.4,0.3,0.8,0.6,1.2c0.3,0.3,0.6,0.6,1,0.8c0.4,0.2,0.8,0.3,1.3,0.3s1-0.1,1.4-0.3s0.8-0.4,1.2-0.8c0.4-0.3,0.6-0.7,0.9-1.2
			c0.2-0.4,0.4-0.9,0.5-1.5l1.4-10.3h3.7L551.9,223z"/>
		<path d="M556.4,221c0.2-1.4,0.6-2.6,1.2-3.7c0.6-1.1,1.4-2,2.3-2.8s2-1.4,3.2-1.8c1.2-0.4,2.4-0.6,3.8-0.6s2.5,0.2,3.6,0.6
			c1.1,0.4,1.9,1,2.6,1.8c0.7,0.8,1.2,1.7,1.5,2.8c0.3,1.1,0.4,2.3,0.2,3.7c-0.2,1.4-0.6,2.6-1.2,3.7c-0.6,1.1-1.4,2-2.3,2.8
			c-0.9,0.8-2,1.4-3.2,1.8c-1.2,0.4-2.4,0.6-3.8,0.6s-2.5-0.2-3.6-0.6c-1.1-0.4-1.9-1-2.7-1.8c-0.7-0.8-1.2-1.7-1.5-2.8
			C556.2,223.6,556.2,222.4,556.4,221z M560.3,221c-0.1,0.8-0.1,1.5,0.1,2.2c0.2,0.7,0.4,1.2,0.8,1.7c0.4,0.5,0.9,0.9,1.5,1.1
			c0.6,0.3,1.3,0.4,2.1,0.4s1.5-0.1,2.2-0.4c0.7-0.3,1.3-0.7,1.8-1.1c0.5-0.5,1-1.1,1.3-1.7s0.6-1.4,0.7-2.2
			c0.1-0.8,0.1-1.5-0.1-2.2s-0.4-1.3-0.8-1.7c-0.4-0.5-0.9-0.9-1.5-1.1c-0.6-0.3-1.3-0.4-2.1-0.4s-1.5,0.1-2.2,0.4
			c-0.7,0.3-1.3,0.7-1.8,1.1s-1,1.1-1.3,1.7C560.6,219.5,560.4,220.2,560.3,221z"/>
		<path d="M580.1,212.5h6.6c0.9,0,1.7,0.1,2.4,0.3s1.4,0.4,1.9,0.8c0.5,0.4,0.9,0.9,1.2,1.6c0.3,0.7,0.3,1.5,0.2,2.5
			c-0.2,1.2-0.6,2.2-1.4,3.1c-0.7,0.8-1.7,1.4-3,1.6l3.3,7.2h-4.5l-2.6-6.8h-1.8l-0.9,6.8h-3.7L580.1,212.5z M582.9,219.6h2.2
			c0.3,0,0.7,0,1.1,0c0.4,0,0.7-0.1,1-0.2s0.6-0.3,0.8-0.6c0.2-0.3,0.4-0.6,0.5-1.1c0.1-0.4,0-0.8-0.1-1c-0.1-0.3-0.3-0.5-0.6-0.6
			s-0.6-0.2-0.9-0.3c-0.3,0-0.7-0.1-1-0.1h-2.4L582.9,219.6z"/>
		<path d="M597.3,212.5h3.7l-2.4,17h-3.7L597.3,212.5z"/>
		<path d="M614.9,212.5h5.6c1.4,0,2.6,0.2,3.8,0.5c1.2,0.3,2.2,0.8,3,1.5c0.8,0.7,1.4,1.6,1.8,2.7c0.4,1.1,0.5,2.4,0.3,4
			c-0.2,1.4-0.6,2.6-1.3,3.6s-1.5,1.9-2.5,2.6c-1,0.7-2.1,1.3-3.3,1.6s-2.4,0.6-3.7,0.6h-6.1L614.9,212.5z M616.8,226.1h1.9
			c0.9,0,1.7-0.1,2.4-0.3c0.8-0.2,1.5-0.5,2.1-0.9c0.6-0.4,1.1-0.9,1.5-1.6c0.4-0.7,0.7-1.5,0.8-2.4c0.1-0.8,0.1-1.6-0.2-2.2
			c-0.2-0.6-0.6-1.1-1-1.5c-0.5-0.4-1.1-0.7-1.7-0.9c-0.7-0.2-1.4-0.3-2.2-0.3h-2.2L616.8,226.1z"/>
		<path d="M634.8,212.5h3.7l-2.4,17h-3.7L634.8,212.5z"/>
		<path d="M652.4,212.5h5.7l2.4,11.1h0l5.5-11.1h5.6l-2.4,17h-3.7l1.8-13h0l-6.3,13h-2.9l-2.5-13h0l-1.8,13H650L652.4,212.5z"/>
		<path d="M676.9,212.5h11.5l-0.5,3.5h-7.8l-0.5,3.2h7.4l-0.5,3.5h-7.4l-0.5,3.5h8.2l-0.5,3.5h-12L676.9,212.5z"/>
	</g>
</g>
</svg>
